Coordinates
version=1
nRows=12
nColumns=24
inDegrees=yes

Units are S.I. units (second, meters, Newtons, ...)
Angles are in degrees.

endheader
time	pelvis_tilt	pelvis_list	pelvis_rotation	pelvis_tx	pelvis_ty	pelvis_tz	hip_flexion_r	hip_adduction_r	hip_rotation_r	knee_angle_r	ankle_angle_r	subtalar_angle_r	mtp_angle_r	hip_flexion_l	hip_adduction_l	hip_rotation_l	knee_angle_l	ankle_angle_l	subtalar_angle_l	mtp_angle_l	lumbar_extension	lumbar_bending	lumbar_rotation
      2.33000000	     67.36666886	      5.74648112	      0.21066405	      0.77198030	      1.02736938	     -0.28548358	     -5.53947426	    -12.73157935	      0.17467575	    -75.94296750	     -1.02991134	    -10.04969974	    -21.68059485	     -4.91342158	     -2.89355306	    -10.36971217	    -60.85212491	      7.12624714	     -9.08490280	    -53.84260803	      0.00000000	      0.00000000	      0.00000000
      2.34000000	     67.13122876	      5.65866781	      0.19482714	      0.77192188	      1.02712677	     -0.28549225	     -4.73321931	    -12.86837488	      0.16709165	    -78.83730701	     -0.03321833	     -9.41709286	    -20.92533819	     -4.54620198	     -2.97092153	    -10.36311480	    -61.09446669	      7.98694947	     -9.03806881	    -52.41224221	      0.00000000	      0.00000000	      0.00000000
      2.35000000	     66.91294613	      5.53145151	      0.17974226	      0.77173665	      1.02699892	     -0.28546581	     -3.93155912	    -12.94202068	      0.16867504	    -81.25612500	      0.77829946	     -8.89989701	    -21.22484335	     -4.20850271	     -3.07166553	    -10.33239127	    -61.31658700	      8.91498553	     -8.88053759	    -50.41933248	      0.00000000	      0.00000000	      0.00000000
      2.36000000	     66.72088605	      5.37505219	      0.16133274	      0.77147493	      1.02687217	     -0.28552117	     -3.15210252	    -12.96834914	      0.16968875	    -83.17013548	      1.36540691	     -8.60508512	    -22.70223944	     -3.91341191	     -3.19314741	    -10.27065243	    -61.50109425	      9.88870656	     -8.61347747	    -47.95768405	      0.00000000	      0.00000000	      0.00000000
      2.37000000	     66.56020719	      5.20355320	      0.13493752	      0.77116046	      1.02668885	     -0.28566795	     -2.41077368	    -12.96577675	      0.15505415	    -84.56919819	      1.73492987	     -8.59553456	    -25.35970314	     -3.66918572	     -3.32707326	    -10.18280163	    -61.64531076	     10.86599298	     -8.25757052	    -45.16590006	      0.00000000	      0.00000000	      0.00000000
      2.38000000	     66.43425136	      5.03129899	      0.09883935	      0.77078487	      1.02656182	     -0.28577375	     -1.72280991	    -12.95045119	      0.10872661	    -85.46019561	      1.94049251	     -8.88324904	    -29.05789178	     -3.47609545	     -3.45672712	    -10.08786863	    -61.76492989	     11.78592112	     -7.85318059	    -42.22403223	      0.00000000	      0.00000000	      0.00000000
      2.39000000	     66.34456924	      4.87338126	      0.05246835	      0.77036824	      1.02655233	     -0.28576252	     -1.10209634	    -12.93590034	      0.01993094	    -85.86467716	      2.07282521	     -9.43177933	    -33.50487919	     -3.32753901	     -3.56578574	    -10.00949601	    -61.88566803	     12.57710112	     -7.45663224	    -39.34848785	      0.00000000	      0.00000000	      0.00000000
      2.40000000	     66.29071021	      4.74349727	     -0.00457507	      0.76996329	      1.02656960	     -0.28568584	     -0.55923299	    -12.93433087	     -0.11359097	    -85.81643800	      2.23985710	    -10.16578299	    -38.25699005	     -3.21386900	     -3.64614495	     -9.96580129	    -62.03212635	     13.16923692	     -7.13296315	    -36.78521593	      0.00000000	      0.00000000	      0.00000000
      2.41000000	     66.27158629	      4.64947680	     -0.07065678	      0.76962173	      1.02651230	     -0.28561347	     -0.10039307	    -12.95532330	     -0.28784191	    -85.35881893	      2.53894802	    -10.98464913	    -42.73337989	     -3.12560863	     -3.69768831	     -9.96644642	    -62.22040628	     13.50433415	     -6.94606346	    -34.80100681	      0.00000000	      0.00000000	      0.00000000
      2.42000000	     66.28600831	      4.59134529	     -0.14074391	      0.76935982	      1.02638352	     -0.28554906	      0.27206259	    -13.00177171	     -0.49841255	    -84.54198060	      3.02591738	    -11.77718634	    -46.24542261	     -3.05676694	     -3.72393685	    -10.01425648	    -62.45418171	     13.54557127	     -6.94753589	    -33.67262535	      0.00000000	      0.00000000	      0.00000000
      2.43000000	     66.33238152	      4.56303357	     -0.20767135	      0.76915161	      1.02627764	     -0.28544848	      0.55803363	    -13.06703721	     -0.74533204	    -83.42017987	      3.68747205	    -12.43504609	    -48.04091969	     -3.00793846	     -3.72927111	    -10.10604079	    -62.72179459	     13.28252209	     -7.16600553	    -33.67352628	      0.00000000	      0.00000000	      0.00000000
      2.44000000	     66.40850762	      4.55604366	     -0.26535862	      0.76896502	      1.02627142	     -0.28528110	      0.75810189	    -13.13639027	     -1.03356170	    -82.04783645	      4.42455512	    -12.86344053	    -47.36179499	     -2.98819051	     -3.71945381	    -10.23106020	    -62.99508394	     12.73157556	     -7.59885937	    -35.05811384	      0.00000000	      0.00000000	      0.00000000
